<svg width="16" height="16" viewBox="0 0 16 16" fill="none" xmlns="http://www.w3.org/2000/svg">
<g id="chassis 1" clip-path="url(#clip0_552_2440)">
<g id="Group">
<g id="Group_2">
<path id="Vector" d="M16 3.3125L16 2.375C16 1.59956 15.3692 0.96875 14.5938 0.96875L11.7812 0.96875C11.0058 0.96875 10.375 1.59956 10.375 2.375L10.375 3.3125C10.375 4.08794 11.0058 4.71875 11.7812 4.71875C12.7187 4.71875 13.4996 4.71875 14.5937 4.71875C15.3692 4.71875 16 4.08794 16 3.3125Z" fill="#C1C1C1"/>
</g>
</g>
<g id="Group_3">
<g id="Group_4">
<path id="Vector_2" d="M12.7187 9.31991L12.7187 10.3437L13.6562 10.3437L13.6562 9.31991C14.2007 9.12575 14.5937 8.61031 14.5937 8C14.5937 7.38969 14.2007 6.87425 13.6562 6.68009L13.6562 5.65625L12.7188 5.65625L12.7187 6.68009C12.3216 6.82172 12.0092 7.13412 11.8676 7.53125L8.4375 7.53125C8.4375 6.75581 7.80669 6.125 7.03125 6.125L6.09375 6.125C5.31831 6.125 4.6875 6.75581 4.6875 7.53125L3.28125 7.53125L3.28125 5.65625L2.34375 5.65625L2.34375 10.3437L3.28125 10.3437L3.28125 8.46875L4.6875 8.46875C4.6875 9.24419 5.31831 9.875 6.09375 9.875L7.03125 9.875C7.80669 9.875 8.4375 9.24419 8.4375 8.46875L11.8676 8.46875C12.0092 8.86587 12.3216 9.17828 12.7187 9.31991Z" fill="#C1C1C1"/>
</g>
</g>
<g id="Group_5">
<g id="Group_6">
<path id="Vector_3" d="M16 13.625L16 12.6875C16 11.9121 15.3692 11.2812 14.5938 11.2812C13.6065 11.2812 12.756 11.2812 11.7812 11.2812C11.0058 11.2812 10.375 11.9121 10.375 12.6875L10.375 13.625C10.375 14.4004 11.0058 15.0312 11.7812 15.0312L14.5937 15.0312C15.3692 15.0312 16 14.4004 16 13.625Z" fill="#C1C1C1"/>
</g>
</g>
<g id="Group_7">
<g id="Group_8">
<path id="Vector_4" d="M5.625 13.625L5.625 12.6875C5.625 11.9121 4.99419 11.2812 4.21875 11.2812C3.23153 11.2812 2.381 11.2812 1.40625 11.2812C0.630813 11.2812 -2.75737e-08 11.9121 -6.14691e-08 12.6875L-1.02449e-07 13.625C-1.36344e-07 14.4004 0.630812 15.0312 1.40625 15.0312L4.21875 15.0312C4.99419 15.0312 5.625 14.4004 5.625 13.625Z" fill="#C1C1C1"/>
</g>
</g>
<g id="Group_9">
<g id="Group_10">
<path id="Vector_5" d="M5.625 3.3125L5.625 2.375C5.625 1.59956 4.99419 0.96875 4.21875 0.96875L1.40625 0.96875C0.630813 0.96875 -2.75737e-08 1.59956 -6.14691e-08 2.375L-1.02449e-07 3.3125C-1.36344e-07 4.08794 0.630812 4.71875 1.40625 4.71875C2.34375 4.71875 3.12459 4.71875 4.21875 4.71875C4.99419 4.71875 5.625 4.08794 5.625 3.3125Z" fill="#C1C1C1"/>
</g>
</g>
</g>
<defs>
<clipPath id="clip0_552_2440">
<rect width="16" height="16" fill="white" transform="translate(16) rotate(90)"/>
</clipPath>
</defs>
</svg>
