<svg width="17" height="17" viewBox="0 0 17 17" fill="none" xmlns="http://www.w3.org/2000/svg">
<g id="streaming 1">
<path id="Vector" d="M7.02894 11.3013H7.02871C6.90371 11.3008 6.78096 11.2677 6.67247 11.2049C6.45145 11.078 6.31481 10.8421 6.31647 10.5871L6.31647 10.5872L6.36647 10.5873L6.31647 10.5869L7.02894 11.3013ZM7.02894 11.3013C7.1539 11.3013 7.27729 11.2688 7.38594 11.2059L7.02894 11.3013ZM6.31913 6.45041H6.36913L6.31913 6.45038M6.31913 6.45041L7.38602 11.2059L10.9702 9.13941C11.0789 9.07703 11.1686 8.9867 11.2314 8.87831L11.2314 8.87825C11.428 8.53768 11.3108 8.10177 10.9703 7.90524L7.38921 5.83339C7.38921 5.83339 7.3892 5.83339 7.3892 5.83339C7.28067 5.77056 7.15782 5.73741 7.03213 5.73741C6.63849 5.73741 6.31914 6.05675 6.31913 6.45038M6.31913 6.45041L6.31913 6.45038M6.31913 6.45041L6.31913 6.45038M7.09327 6.5144L10.5623 8.52149L8.81113 9.53434L7.05556 10.5026V8.51904L7.09327 6.5144Z" fill="url(#paint0_linear_579_357)" stroke="url(#paint1_linear_579_357)" stroke-width="0.1"/>
<path id="Vector_2" d="M14.3549 3.19654L14.3939 3.16531C14.3935 3.16486 14.393 3.16422 14.3924 3.16343C14.3895 3.15966 14.3839 3.15251 14.3782 3.14656C14.2436 2.99458 14.0113 2.97949 13.8586 3.11384C13.7059 3.24816 13.6902 3.4806 13.8243 3.63371C16.1445 6.46328 16.1443 10.5376 13.8237 13.367L13.8236 13.3671C13.7702 13.4328 13.7408 13.515 13.7401 13.5997L13.7401 13.5999C13.7395 13.8033 13.9042 13.9693 14.1084 13.9693C14.2189 13.9693 14.3234 13.9202 14.3935 13.8347C16.9379 10.7329 16.9379 6.26611 14.3935 3.16483L14.3549 3.19654ZM14.3549 3.19654C16.8841 6.27939 16.8841 10.7196 14.3549 13.803L13.8624 3.60136C13.746 3.46908 13.7593 3.26773 13.8916 3.15139C14.0239 3.03504 14.2252 3.04833 14.3416 3.18061C14.3452 3.18427 14.3486 3.18856 14.3519 3.19275C14.3529 3.19403 14.3539 3.1953 14.3549 3.19654Z" fill="url(#paint2_linear_579_357)" stroke="url(#paint3_linear_579_357)" stroke-width="0.1"/>
<path id="Vector_3" d="M12.1724 11.6465C12.1719 11.8499 12.3365 12.0158 12.54 12.0164H12.5401C12.6535 12.0164 12.7612 11.9649 12.8313 11.875L12.8315 11.8748C14.3616 9.89915 14.3616 7.13856 12.832 5.16288L12.832 5.16288L12.8319 5.1627C12.7065 5.00234 12.4749 4.97346 12.3139 5.09879L12.3138 5.09885C12.1535 5.22416 12.1246 5.45572 12.2498 5.61668C13.572 7.32576 13.572 9.71248 12.2498 11.4216L12.2498 11.4216C12.2002 11.4859 12.1724 11.5645 12.1724 11.6465ZM12.1724 11.6465C12.1724 11.6465 12.1724 11.6465 12.1724 11.6464L12.2224 11.6466H12.1724C12.1724 11.6466 12.1724 11.6465 12.1724 11.6465Z" fill="url(#paint4_linear_579_357)" stroke="url(#paint5_linear_579_357)" stroke-width="0.1"/>
<path id="Vector_4" d="M3.12469 13.8852C3.28195 13.7562 3.3054 13.5239 3.17626 13.3664C0.855701 10.5371 0.855473 6.46295 3.17557 3.63338L3.18993 3.61614L3.19053 3.61536C3.31468 3.45372 3.28398 3.22198 3.12227 3.09839L3.09191 3.13812L3.12237 3.09847C2.96096 2.9745 2.72967 3.00493 2.60595 3.16602M3.12469 13.8852L3.09297 13.8465L3.12473 13.8851C3.12472 13.8852 3.1247 13.8852 3.12469 13.8852ZM3.12469 13.8852C3.05892 13.9393 2.97653 13.9688 2.89163 13.9688C2.78115 13.9688 2.67668 13.9197 2.60658 13.8348L2.60647 13.8347C0.0622436 10.7336 0.062067 6.26728 2.60595 3.16602M2.60595 3.16602C2.60576 3.16626 2.60558 3.16649 2.6054 3.16673L2.64513 3.19709L2.60647 3.16537C2.6063 3.16559 2.60612 3.1658 2.60595 3.16602Z" fill="url(#paint6_linear_579_357)" stroke="url(#paint7_linear_579_357)" stroke-width="0.1"/>
<path id="Vector_5" d="M4.45944 12.0164C4.54145 12.0164 4.62009 11.9886 4.68433 11.9391L4.68442 11.939C4.84552 11.8142 4.87431 11.5825 4.74965 11.4216C3.42752 9.71251 3.4275 7.32585 4.74958 5.61678C4.87488 5.45635 4.84652 5.22479 4.68627 5.09892L4.6861 5.09879C4.52514 4.97346 4.29349 5.00234 4.16815 5.1627L4.16801 5.16288C2.6384 7.13856 2.6384 9.89914 4.16801 11.8748L4.16813 11.875C4.23816 11.9647 4.34569 12.017 4.45944 12.0164ZM4.45944 12.0164C4.45941 12.0164 4.45938 12.0164 4.45936 12.0164V11.9664L4.45963 12.0164C4.45956 12.0164 4.4595 12.0164 4.45944 12.0164Z" fill="url(#paint8_linear_579_357)" stroke="url(#paint9_linear_579_357)" stroke-width="0.1"/>
</g>
<defs>
<linearGradient id="paint0_linear_579_357" x1="6.36646" y1="8.51937" x2="11.2768" y2="8.51937" gradientUnits="userSpaceOnUse">
<stop stop-color="#B11E24"/>
<stop offset="1"/>
</linearGradient>
<linearGradient id="paint1_linear_579_357" x1="6.36646" y1="8.51937" x2="11.2768" y2="8.51937" gradientUnits="userSpaceOnUse">
<stop stop-color="#B11E24"/>
<stop offset="1"/>
</linearGradient>
<linearGradient id="paint2_linear_579_357" x1="13.7831" y1="8.49569" x2="16.2518" y2="8.49569" gradientUnits="userSpaceOnUse">
<stop stop-color="#B11E24"/>
<stop offset="1"/>
</linearGradient>
<linearGradient id="paint3_linear_579_357" x1="13.7831" y1="8.49569" x2="16.2518" y2="8.49569" gradientUnits="userSpaceOnUse">
<stop stop-color="#B11E24"/>
<stop offset="1"/>
</linearGradient>
<linearGradient id="paint4_linear_579_357" x1="12.2219" y1="8.5186" x2="13.9291" y2="8.5186" gradientUnits="userSpaceOnUse">
<stop stop-color="#B11E24"/>
<stop offset="1"/>
</linearGradient>
<linearGradient id="paint5_linear_579_357" x1="12.2219" y1="8.5186" x2="13.9291" y2="8.5186" gradientUnits="userSpaceOnUse">
<stop stop-color="#B11E24"/>
<stop offset="1"/>
</linearGradient>
<linearGradient id="paint6_linear_579_357" x1="0.748169" y1="8.49549" x2="3.2168" y2="8.49549" gradientUnits="userSpaceOnUse">
<stop stop-color="#B11E24"/>
<stop offset="1"/>
</linearGradient>
<linearGradient id="paint7_linear_579_357" x1="0.748169" y1="8.49549" x2="3.2168" y2="8.49549" gradientUnits="userSpaceOnUse">
<stop stop-color="#B11E24"/>
<stop offset="1"/>
</linearGradient>
<linearGradient id="paint8_linear_579_357" x1="3.0708" y1="8.5186" x2="4.77775" y2="8.5186" gradientUnits="userSpaceOnUse">
<stop stop-color="#B11E24"/>
<stop offset="1"/>
</linearGradient>
<linearGradient id="paint9_linear_579_357" x1="3.0708" y1="8.5186" x2="4.77775" y2="8.5186" gradientUnits="userSpaceOnUse">
<stop stop-color="#B11E24"/>
<stop offset="1"/>
</linearGradient>
</defs>
</svg>
