<svg width="17" height="17" viewBox="0 0 17 17" fill="none" xmlns="http://www.w3.org/2000/svg">
<g id="Icon Set" clip-path="url(#clip0_579_3401)">
<path id="Vector" d="M14.875 12.0417H14.1667V11.3333C14.1667 10.9423 13.85 10.625 13.4583 10.625C13.0666 10.625 12.75 10.9423 12.75 11.3333V12.0417H9.20833C8.03675 12.0417 7.08333 12.9951 7.08333 14.1667V14.5208C7.08333 15.1066 6.60662 15.5833 6.02083 15.5833C5.43504 15.5833 4.95833 15.1066 4.95833 14.5208V2.47917C4.95833 2.09737 4.86412 1.73967 4.70971 1.41667H6.375C6.76671 1.41667 7.08333 1.09933 7.08333 0.708333C7.08333 0.317333 6.76671 0 6.375 0H2.47917C1.11208 0 0 1.11208 0 2.47917V2.83333C0 4.00492 0.953417 4.95833 2.125 4.95833H3.54167V14.5208C3.54167 15.8872 4.65304 16.9993 6.01942 17H14.5208C15.8879 17 17 15.8879 17 14.5208V14.1667C17 12.9951 16.0466 12.0417 14.875 12.0417ZM3.54167 3.54167H2.125C1.734 3.54167 1.41667 3.22362 1.41667 2.83333V2.47917C1.41667 1.89337 1.89337 1.41667 2.47917 1.41667C3.06496 1.41667 3.54167 1.89337 3.54167 2.47917V3.54167ZM15.5833 14.5208C15.5833 15.1066 15.1066 15.5833 14.5208 15.5833H8.26058C8.41429 15.261 8.5 14.9012 8.5 14.5208V14.1667C8.5 13.7764 8.81733 13.4583 9.20833 13.4583H14.875C15.266 13.4583 15.5833 13.7764 15.5833 14.1667V14.5208ZM12.0417 9.91667C14.7751 9.91667 17 7.6925 17 4.95833C17 2.22417 14.7751 0 12.0417 0C9.30821 0 7.08333 2.22417 7.08333 4.95833C7.08333 7.6925 9.30821 9.91667 12.0417 9.91667ZM12.0417 1.41667C13.9945 1.41667 15.5833 3.00546 15.5833 4.95833C15.5833 6.91121 13.9945 8.5 12.0417 8.5C10.0888 8.5 8.5 6.91121 8.5 4.95833C8.5 3.00546 10.0888 1.41667 12.0417 1.41667ZM9.57525 4.81667C9.84867 4.53687 10.297 4.53333 10.5768 4.80604L11.378 5.59088C11.48 5.69075 11.6464 5.68933 11.7477 5.59088L13.3223 4.07929C13.6035 3.80871 14.0533 3.81792 14.3239 4.09983C14.5945 4.38175 14.5853 4.83012 14.3034 5.10142L12.7358 6.60592C12.415 6.92254 11.9907 7.08121 11.565 7.08121C11.1392 7.08121 10.7121 6.92254 10.3863 6.60379L9.58517 5.81896C9.30537 5.54483 9.30183 5.09575 9.57525 4.81667Z" fill="url(#paint0_linear_579_3401)"/>
</g>
<defs>
<linearGradient id="paint0_linear_579_3401" x1="0" y1="8.5" x2="17" y2="8.5" gradientUnits="userSpaceOnUse">
<stop stop-color="#B11E24"/>
<stop offset="1"/>
</linearGradient>
<clipPath id="clip0_579_3401">
<rect width="17" height="17" fill="white"/>
</clipPath>
</defs>
</svg>
